<mxfile host="app.diagrams.net" modified="2022-12-21T02:19:36.358Z" agent="5.0 (Windows NT 10.0; Win64; x64) AppleWebKit/537.36 (KHTML, like Gecko) Chrome/108.0.0.0 Safari/537.36" etag="Zu_dkTavHTGQRJulRtPq" version="20.7.4" type="github">
  <diagram id="8rvcSwTFGWj2J242Crnc" name="Page-1">
    <mxGraphModel dx="1050" dy="581" grid="1" gridSize="10" guides="1" tooltips="1" connect="1" arrows="1" fold="1" page="1" pageScale="1" pageWidth="850" pageHeight="1100" math="0" shadow="0">
      <root>
        <mxCell id="0" />
        <mxCell id="1" parent="0" />
        <mxCell id="NwdP5IopwEeq5WQg2_iz-1" value="Main" style="swimlane;fontStyle=1;align=center;verticalAlign=top;childLayout=stackLayout;horizontal=1;startSize=26;horizontalStack=0;resizeParent=1;resizeParentMax=0;resizeLast=0;collapsible=1;marginBottom=0;" parent="1" vertex="1">
          <mxGeometry x="270" y="170" width="160" height="86" as="geometry" />
        </mxCell>
        <mxCell id="NwdP5IopwEeq5WQg2_iz-2" value="+ EssayList : ArrayList" style="text;strokeColor=none;fillColor=none;align=left;verticalAlign=top;spacingLeft=4;spacingRight=4;overflow=hidden;rotatable=0;points=[[0,0.5],[1,0.5]];portConstraint=eastwest;" parent="NwdP5IopwEeq5WQg2_iz-1" vertex="1">
          <mxGeometry y="26" width="160" height="26" as="geometry" />
        </mxCell>
        <mxCell id="NwdP5IopwEeq5WQg2_iz-5" value="" style="line;strokeWidth=1;fillColor=none;align=left;verticalAlign=middle;spacingTop=-1;spacingLeft=3;spacingRight=3;rotatable=0;labelPosition=right;points=[];portConstraint=eastwest;strokeColor=inherit;" parent="NwdP5IopwEeq5WQg2_iz-1" vertex="1">
          <mxGeometry y="52" width="160" height="8" as="geometry" />
        </mxCell>
        <mxCell id="NwdP5IopwEeq5WQg2_iz-4" value="+ main(String[] args) : void" style="text;strokeColor=none;fillColor=none;align=left;verticalAlign=top;spacingLeft=4;spacingRight=4;overflow=hidden;rotatable=0;points=[[0,0.5],[1,0.5]];portConstraint=eastwest;" parent="NwdP5IopwEeq5WQg2_iz-1" vertex="1">
          <mxGeometry y="60" width="160" height="26" as="geometry" />
        </mxCell>
        <mxCell id="NwdP5IopwEeq5WQg2_iz-6" value="Essay" style="swimlane;fontStyle=1;align=center;verticalAlign=top;childLayout=stackLayout;horizontal=1;startSize=26;horizontalStack=0;resizeParent=1;resizeParentMax=0;resizeLast=0;collapsible=1;marginBottom=0;" parent="1" vertex="1">
          <mxGeometry x="250" y="300" width="210" height="170" as="geometry" />
        </mxCell>
        <mxCell id="NwdP5IopwEeq5WQg2_iz-7" value="- text : String&#xa;- title : String&#xa;- sentences : ArrayList&lt;String&gt;" style="text;strokeColor=none;fillColor=none;align=left;verticalAlign=top;spacingLeft=4;spacingRight=4;overflow=hidden;rotatable=0;points=[[0,0.5],[1,0.5]];portConstraint=eastwest;" parent="NwdP5IopwEeq5WQg2_iz-6" vertex="1">
          <mxGeometry y="26" width="210" height="54" as="geometry" />
        </mxCell>
        <mxCell id="NwdP5IopwEeq5WQg2_iz-8" value="" style="line;strokeWidth=1;fillColor=none;align=left;verticalAlign=middle;spacingTop=-1;spacingLeft=3;spacingRight=3;rotatable=0;labelPosition=right;points=[];portConstraint=eastwest;strokeColor=inherit;" parent="NwdP5IopwEeq5WQg2_iz-6" vertex="1">
          <mxGeometry y="80" width="210" height="8" as="geometry" />
        </mxCell>
        <mxCell id="NwdP5IopwEeq5WQg2_iz-9" value="- divide(String) : ArrayList&lt;String&gt;&#xa;+ setText(String) : void&#xa;+ getText() : String&#xa;+ getTitle() : String&#xa;+ getSentences() : ArrayList&lt;String&gt;" style="text;strokeColor=none;fillColor=none;align=left;verticalAlign=top;spacingLeft=4;spacingRight=4;overflow=hidden;rotatable=0;points=[[0,0.5],[1,0.5]];portConstraint=eastwest;" parent="NwdP5IopwEeq5WQg2_iz-6" vertex="1">
          <mxGeometry y="88" width="210" height="82" as="geometry" />
        </mxCell>
        <mxCell id="mxFnFeicxmsz6WVXEd3d-2" style="edgeStyle=orthogonalEdgeStyle;rounded=0;orthogonalLoop=1;jettySize=auto;html=1;exitX=1;exitY=0;exitDx=0;exitDy=0;entryX=1;entryY=0.25;entryDx=0;entryDy=0;" edge="1" parent="1" source="NwdP5IopwEeq5WQg2_iz-11" target="NwdP5IopwEeq5WQg2_iz-15">
          <mxGeometry relative="1" as="geometry" />
        </mxCell>
        <mxCell id="NwdP5IopwEeq5WQg2_iz-11" value="MainMenuHandler" style="swimlane;fontStyle=1;align=center;verticalAlign=top;childLayout=stackLayout;horizontal=1;startSize=26;horizontalStack=0;resizeParent=1;resizeParentMax=0;resizeLast=0;collapsible=1;marginBottom=0;" parent="1" vertex="1">
          <mxGeometry x="550" y="260" width="200" height="130" as="geometry" />
        </mxCell>
        <mxCell id="NwdP5IopwEeq5WQg2_iz-12" value="- percent : int&#xa;- percentInput : textField" style="text;strokeColor=none;fillColor=none;align=left;verticalAlign=top;spacingLeft=4;spacingRight=4;overflow=hidden;rotatable=0;points=[[0,0.5],[1,0.5]];portConstraint=eastwest;" parent="NwdP5IopwEeq5WQg2_iz-11" vertex="1">
          <mxGeometry y="26" width="200" height="44" as="geometry" />
        </mxCell>
        <mxCell id="NwdP5IopwEeq5WQg2_iz-13" value="" style="line;strokeWidth=1;fillColor=none;align=left;verticalAlign=middle;spacingTop=-1;spacingLeft=3;spacingRight=3;rotatable=0;labelPosition=right;points=[];portConstraint=eastwest;strokeColor=inherit;" parent="NwdP5IopwEeq5WQg2_iz-11" vertex="1">
          <mxGeometry y="70" width="200" height="8" as="geometry" />
        </mxCell>
        <mxCell id="NwdP5IopwEeq5WQg2_iz-14" value="- addEssayBtn(ActionEvent) : void&#xa;- clearEssayBtn(ActionEvent) : void&#xa;- resultsBtn(ActionEvent) : void" style="text;strokeColor=none;fillColor=none;align=left;verticalAlign=top;spacingLeft=4;spacingRight=4;overflow=hidden;rotatable=0;points=[[0,0.5],[1,0.5]];portConstraint=eastwest;" parent="NwdP5IopwEeq5WQg2_iz-11" vertex="1">
          <mxGeometry y="78" width="200" height="52" as="geometry" />
        </mxCell>
        <mxCell id="NwdP5IopwEeq5WQg2_iz-15" value="ResultsHandler" style="swimlane;fontStyle=1;align=center;verticalAlign=top;childLayout=stackLayout;horizontal=1;startSize=26;horizontalStack=0;resizeParent=1;resizeParentMax=0;resizeLast=0;collapsible=1;marginBottom=0;" parent="1" vertex="1">
          <mxGeometry x="555" y="430" width="190" height="94" as="geometry" />
        </mxCell>
        <mxCell id="NwdP5IopwEeq5WQg2_iz-16" value="- resultsArea : textArea&#xa;- fileField : textField" style="text;strokeColor=none;fillColor=none;align=left;verticalAlign=top;spacingLeft=4;spacingRight=4;overflow=hidden;rotatable=0;points=[[0,0.5],[1,0.5]];portConstraint=eastwest;" parent="NwdP5IopwEeq5WQg2_iz-15" vertex="1">
          <mxGeometry y="26" width="190" height="34" as="geometry" />
        </mxCell>
        <mxCell id="NwdP5IopwEeq5WQg2_iz-17" value="" style="line;strokeWidth=1;fillColor=none;align=left;verticalAlign=middle;spacingTop=-1;spacingLeft=3;spacingRight=3;rotatable=0;labelPosition=right;points=[];portConstraint=eastwest;strokeColor=inherit;" parent="NwdP5IopwEeq5WQg2_iz-15" vertex="1">
          <mxGeometry y="60" width="190" height="8" as="geometry" />
        </mxCell>
        <mxCell id="NwdP5IopwEeq5WQg2_iz-18" value="+ printFileBtn(ActionEvent) : void" style="text;strokeColor=none;fillColor=none;align=left;verticalAlign=top;spacingLeft=4;spacingRight=4;overflow=hidden;rotatable=0;points=[[0,0.5],[1,0.5]];portConstraint=eastwest;" parent="NwdP5IopwEeq5WQg2_iz-15" vertex="1">
          <mxGeometry y="68" width="190" height="26" as="geometry" />
        </mxCell>
      </root>
    </mxGraphModel>
  </diagram>
</mxfile>
